<svg x="0" y="0" width="350" height="350" viewBox="0 0 350 350" xmlns="http://www.w3.org/2000/svg" xmlns:xlink="http://www.w3.org/1999/xlink" xmlns:fi="http://pattern.flaticon.com/"><rect x="0px" y="0px" width="100%" height="100%" opacity="1" fill="#45547c"/><defs><g transform="matrix(0.16979165375232697 0.04549553617835045 -0.04549553617835045 0.16979165375232697 -31.819805145263672 -55.113521575927734)" id="L1_210"><path d="M488.727,0H256H23.273C10.42,0,0,10.418,0,23.273v465.455C0,501.58,10.42,512,23.273,512H256h232.727  C501.58,512,512,501.58,512,488.727V23.273C512,10.418,501.58,0,488.727,0z" fill="#c2fb3b"/><path d="M201.675,377.665c-4.364,4.364-10.283,6.816-16.455,6.816c-6.173,0-12.093-2.453-16.457-6.816  l-68.856-68.858c-9.089-9.089-9.089-23.824,0-32.912c9.087-9.089,23.824-9.087,32.912,0l52.401,52.401l70.78-70.78V0H23.273  C10.42,0,0,10.418,0,23.273v465.455C0,501.58,10.42,512,23.273,512H256V323.34L201.675,377.665z" fill="#9cdd05"/><path d="M412.092,134.333c-9.087-9.089-23.824-9.087-32.912,0L256,257.516l-70.78,70.782l-52.401-52.401  c-9.087-9.087-23.824-9.089-32.912,0s-9.089,23.823,0,32.912l68.856,68.858c4.364,4.364,10.283,6.816,16.457,6.816  c6.172,0,12.092-2.453,16.455-6.816L256,323.34l156.092-156.093C421.182,158.158,421.182,143.422,412.092,134.333z" fill="#64c37d"/></g><g transform="matrix(0.0390625 0 0 0.0390625 77.5 340)" id="L1_211"><path d="M488.727,186.182H256H23.273C10.42,186.182,0,196.6,0,209.455v93.091  c0,12.853,10.42,23.273,23.273,23.273H256h232.727c12.853,0,23.273-10.42,23.273-23.273v-93.091  C512,196.6,501.58,186.182,488.727,186.182z" fill="#ff3f62"/><path d="M23.273,186.182C10.42,186.182,0,196.6,0,209.455v93.091c0,12.853,10.42,23.273,23.273,23.273H256  V186.182H23.273z" fill="#ff0c38"/></g><g transform="matrix(0.078125 0 0 0.078125 155 330)" id="L1_212"><path d="M488.727,0H256H23.273C10.42,0,0,10.418,0,23.273v465.455C0,501.58,10.42,512,23.273,512H256h232.727  C501.58,512,512,501.58,512,488.727V23.273C512,10.418,501.58,0,488.727,0z" fill="#b87fd9"/><path d="M180.553,409.363c-7.844,4.124-17.341,3.434-24.509-1.772c-7.166-5.207-10.755-14.032-9.258-22.762  l14.414-84.015l-61.034-59.488c-6.344-6.183-8.628-15.433-5.89-23.858c2.737-8.425,10.021-14.566,18.787-15.839l84.348-12.254  l37.719-76.435c3.919-7.945,12.01-12.974,20.869-12.974V0H23.273C10.42,0,0,10.418,0,23.273v465.455C0,501.58,10.42,512,23.273,512  H256V369.7L180.553,409.363z" fill="#933ec5"/><path d="M417.724,217.468c-2.737-8.425-10.02-14.566-18.787-15.839l-84.345-12.254l-37.722-76.437  c-3.919-7.945-12.01-12.974-20.869-12.974s-16.95,5.03-20.869,12.974l-37.719,76.435l-84.348,12.254  c-8.766,1.274-16.052,7.415-18.787,15.839c-2.738,8.425-0.455,17.675,5.89,23.858l61.035,59.488l-14.414,84.015  c-1.497,8.73,2.091,17.555,9.258,22.762c7.168,5.205,16.665,5.896,24.509,1.772L256,369.7l75.447,39.663  c3.404,1.79,7.123,2.673,10.826,2.673c0.025,0,0.047,0,0.07,0c12.837-0.02,23.237-10.432,23.237-23.273  c0-1.787-0.202-3.528-0.583-5.201l-14.195-82.749l61.035-59.488C418.178,235.143,420.462,225.893,417.724,217.468z" fill="#5a2479"/></g><g transform="matrix(0.039062272757291794 0 0 0.039062272757291794 252.5 340)" id="L1_213"><path d="M360.773,20.807c-38.114,0-75.772,14.353-104.769,39.229c-0.002-0.002-0.003-0.002-0.005-0.003  c-29.001-24.878-66.657-39.225-104.772-39.225C66.429,20.807,0,87.235,0,172.036c0,102.508,71.37,165.162,179.402,260.002  c9.234,8.107,18.763,16.471,28.57,25.143c0.067,0.061,0.135,0.119,0.203,0.178l32.617,28.174c4.367,3.774,9.788,5.66,15.21,5.663  c0.003,0,0.006,0,0.008,0c5.424,0,10.847-1.889,15.219-5.664l32.611-28.174c0.068-0.059,0.135-0.118,0.203-0.177  c64.566-57.104,112.978-100.819,148-143.452c40.907-49.796,59.961-94.82,59.961-141.692C512,87.235,445.573,20.807,360.773,20.807z" fill="#d7143a"/><path d="M151.228,20.807C66.429,20.807,0,87.235,0,172.036c0,102.508,71.37,165.162,179.402,260.002  c9.234,8.107,18.763,16.471,28.57,25.143c0.067,0.061,0.135,0.119,0.203,0.178l32.617,28.174c4.367,3.774,9.788,5.661,15.21,5.663  V60.033C226.999,35.155,189.343,20.807,151.228,20.807z" fill="#b4002b"/></g><g transform="matrix(0.078125 0 0 0.078125 67.5 67.5)" id="L1_214"><path d="M488.727,0H256H23.273C10.42,0,0,10.418,0,23.273v465.455C0,501.58,10.42,512,23.273,512H256h232.727  C501.58,512,512,501.58,512,488.727V23.273C512,10.418,501.58,0,488.727,0z" fill="#a4e276"/><path d="M232.727,395.636V279.273H116.364c-12.853,0-23.273-10.42-23.273-23.273  c0-12.854,10.42-23.273,23.273-23.273h116.364V116.364c0-12.854,10.42-23.273,23.273-23.273V0H23.273C10.42,0,0,10.418,0,23.273  v465.455C0,501.58,10.42,512,23.273,512H256v-93.091C243.147,418.909,232.727,408.489,232.727,395.636z" fill="#64c37d"/><path d="M395.636,232.727H279.273V116.364c0-12.854-10.42-23.273-23.273-23.273  c-12.853,0-23.273,10.418-23.273,23.273v116.364H116.364c-12.853,0-23.273,10.418-23.273,23.273  c0,12.853,10.42,23.273,23.273,23.273h116.364v116.364c0,12.853,10.42,23.273,23.273,23.273c12.853,0,23.273-10.42,23.273-23.273  V279.273h116.364c12.853,0,23.273-10.42,23.273-23.273C418.909,243.146,408.489,232.727,395.636,232.727z" fill="#368b4c"/></g><g transform="matrix(0.078125 0 0 0.078125 242.5 67.5)" id="L1_215"><path d="M488.727,0H256H23.273C10.42,0,0,10.418,0,23.273v465.455C0,501.58,10.42,512,23.273,512H256h232.727  C501.58,512,512,501.58,512,488.727V23.273C512,10.418,501.58,0,488.727,0z" fill="#ff3f62"/><path d="M116.364,279.273c-12.853,0-23.273-10.42-23.273-23.273c0-12.854,10.42-23.273,23.273-23.273H256V0  H23.273C10.42,0,0,10.418,0,23.273v465.455C0,501.58,10.42,512,23.273,512H256V279.273H116.364z" fill="#ff0c38"/><path d="M395.636,232.727H256H116.364c-12.853,0-23.273,10.418-23.273,23.273  c0,12.853,10.42,23.273,23.273,23.273H256h139.636c12.853,0,23.273-10.42,23.273-23.273  C418.909,243.146,408.489,232.727,395.636,232.727z" fill="#830018"/></g><g transform="matrix(0.13671875 0 0 0.13671875 315 140)" id="L1_216"><path d="M510.859,196.558c-2.737-8.426-10.021-14.568-18.791-15.842l-148.695-21.604l-66.5-134.753  c-3.92-7.945-12.012-12.976-20.873-12.976c-8.861,0-16.953,5.031-20.873,12.976L168.631,159.11l-148.7,21.604  c-8.768,1.274-16.055,7.416-18.791,15.842c-2.739,8.426-0.455,17.678,5.891,23.862L114.63,325.291L89.22,473.405  c-1.497,8.732,2.092,17.558,9.26,22.766c7.169,5.206,16.669,5.895,24.514,1.772L256,428.021l133.007,69.922  c3.405,1.791,7.124,2.674,10.828,2.674c0.033,0,0.067,0,0.099,0c12.827-0.036,23.21-10.444,23.21-23.277  c0-1.788-0.202-3.529-0.582-5.202l-25.193-146.846L504.97,220.42C511.314,214.236,513.598,204.986,510.859,196.558z" fill="#f2d23d"/><path d="M235.127,24.361l-66.496,134.751l-148.7,21.604c-8.768,1.274-16.055,7.416-18.791,15.842  c-2.739,8.426-0.455,17.678,5.891,23.862L114.63,325.293L89.22,473.405c-1.497,8.733,2.092,17.558,9.26,22.766  c7.169,5.206,16.669,5.895,24.514,1.772L256,428.021V11.385C247.139,11.385,239.047,16.414,235.127,24.361z" fill="#eebf00"/></g><g transform="matrix(0.13206017017364502 -0.03538541495800018 0.03538541495800018 0.13206017017364502 132.1339111328125 150.2512664794922)" id="L1_217"><path d="M360.773,20.803c-38.118,0-75.772,14.361-104.767,39.245c-0.003-0.002-0.003-0.003-0.006-0.005  c-29.004-24.879-66.657-39.24-104.772-39.24C66.429,20.803,0,87.232,0,172.033c0,102.506,71.37,165.161,179.4,260.001  c9.234,8.107,18.763,16.473,28.57,25.145c0.067,0.061,0.135,0.12,0.203,0.178l32.519,28.092l0.028,0.025l0.07,0.061  c0.048,0.042,0.101,0.078,0.152,0.119c0.433,0.369,0.88,0.72,1.336,1.052c0.163,0.121,0.334,0.236,0.503,0.352  c0.363,0.253,0.736,0.492,1.113,0.722c0.191,0.116,0.382,0.233,0.576,0.344c0.391,0.223,0.788,0.43,1.189,0.629  c0.175,0.087,0.346,0.18,0.525,0.264c0.047,0.022,0.092,0.048,0.14,0.07c0.146,0.067,0.295,0.11,0.441,0.174  c0.535,0.231,1.074,0.447,1.619,0.636c0.261,0.09,0.526,0.171,0.79,0.251c0.481,0.147,0.964,0.281,1.449,0.396  c0.282,0.067,0.56,0.132,0.844,0.189c0.503,0.101,1.007,0.177,1.515,0.244c0.255,0.033,0.506,0.076,0.759,0.101  c0.74,0.071,1.48,0.116,2.221,0.118c0.016,0,0.028,0.002,0.042,0.002h0.003c0.002,0,0.003,0,0.005,0h0.005  c0.016,0,0.031-0.002,0.045-0.002c0.74-0.002,1.48-0.045,2.222-0.118c0.251-0.025,0.501-0.067,0.751-0.099  c0.509-0.067,1.018-0.144,1.522-0.245c0.281-0.056,0.559-0.121,0.838-0.188c0.487-0.116,0.975-0.25,1.457-0.399  c0.261-0.081,0.521-0.16,0.781-0.248c0.552-0.192,1.099-0.41,1.642-0.646c0.14-0.061,0.282-0.102,0.421-0.166  c0.045-0.02,0.088-0.045,0.133-0.067c0.188-0.087,0.366-0.186,0.551-0.278c0.391-0.194,0.779-0.396,1.161-0.615  c0.2-0.115,0.394-0.233,0.591-0.352c0.372-0.228,0.74-0.467,1.1-0.715c0.169-0.118,0.343-0.234,0.509-0.355  c0.456-0.334,0.903-0.683,1.336-1.052c0.048-0.042,0.101-0.076,0.151-0.118l0.068-0.059l0.029-0.025l32.513-28.092  c0.068-0.059,0.135-0.118,0.203-0.177c64.566-57.104,112.978-100.819,148-143.452C492.946,263.934,512,218.91,512,172.038  C512,87.232,445.573,20.803,360.773,20.803z" fill="#c4d9fd"/><path d="M151.228,20.803C66.429,20.803,0,87.232,0,172.033c0,102.506,71.37,165.161,179.4,260.001  c9.234,8.107,18.763,16.473,28.57,25.145c0.067,0.061,0.135,0.12,0.203,0.178l32.519,28.092l0.028,0.025l0.07,0.061  c0.048,0.042,0.101,0.078,0.152,0.119c0.433,0.369,0.88,0.72,1.336,1.052c0.163,0.121,0.334,0.236,0.503,0.352  c0.363,0.253,0.736,0.492,1.113,0.722c0.191,0.116,0.382,0.233,0.576,0.344c0.391,0.223,0.788,0.43,1.189,0.629  c0.175,0.087,0.346,0.18,0.525,0.264c0.047,0.022,0.092,0.048,0.14,0.07c0.146,0.067,0.295,0.11,0.441,0.174  c0.535,0.231,1.074,0.447,1.619,0.636c0.261,0.09,0.526,0.171,0.79,0.251c0.481,0.147,0.964,0.281,1.449,0.396  c0.282,0.067,0.56,0.133,0.844,0.189c0.503,0.101,1.009,0.177,1.515,0.244c0.255,0.033,0.506,0.076,0.759,0.101  c0.74,0.071,1.48,0.116,2.221,0.118c0.016,0,0.028,0.002,0.042,0.002V60.044C226.996,35.164,189.343,20.803,151.228,20.803z" fill="#b4002b"/></g><g transform="matrix(0.09765625 0 0 0.09765625 62.5 237.5)" id="L1_218"><path d="M488.727,0H256H23.273C10.42,0,0,10.418,0,23.273v465.455C0,501.58,10.42,512,23.273,512H256h232.727  C501.58,512,512,501.58,512,488.727V23.273C512,10.418,501.58,0,488.727,0z" fill="#9bc9ff"/><path d="M173.718,371.194c-4.544,4.544-10.501,6.817-16.455,6.817c-5.956,0-11.913-2.271-16.455-6.817  c-9.089-9.089-9.089-23.824,0-32.912L223.089,256l-82.282-82.281c-9.089-9.089-9.089-23.824,0-32.912  c9.087-9.087,23.824-9.087,32.912,0L256,223.088V0H23.273C10.42,0,0,10.418,0,23.273v465.455C0,501.58,10.42,512,23.273,512H256  V288.912L173.718,371.194z" fill="#57a4ff"/><path d="M288.912,255.998l82.281-82.282c9.089-9.089,9.089-23.824,0-32.912  c-9.087-9.087-23.824-9.087-32.912,0L256,223.088l-82.281-82.282c-9.087-9.087-23.824-9.087-32.912,0  c-9.089,9.089-9.089,23.824,0,32.912L223.088,256l-82.282,82.282c-9.089,9.089-9.089,23.824,0,32.912  c4.544,4.544,10.501,6.817,16.455,6.817c5.956,0,11.913-2.271,16.455-6.817L256,288.912l82.282,82.281  c4.544,4.544,10.501,6.817,16.455,6.817c5.956,0,11.913-2.271,16.455-6.817c9.089-9.089,9.089-23.824,0-32.912L288.912,255.998z" fill="#3d6deb"/></g><g transform="matrix(0.17578125 0 0 0.17578125 217.5 217.5)" id="L1_219"><path d="M510.859,196.558c-2.737-8.426-10.021-14.568-18.791-15.842l-148.695-21.604l-66.5-134.753  c-3.92-7.945-12.012-12.976-20.873-12.976c-8.861,0-16.953,5.031-20.873,12.976L168.631,159.11l-148.7,21.604  c-8.769,1.274-16.055,7.416-18.791,15.842c-2.739,8.428-0.455,17.678,5.891,23.862l107.601,104.873L89.22,473.405  c-1.497,8.732,2.092,17.558,9.26,22.766c4.055,2.947,8.858,4.446,13.685,4.446c3.704,0,7.422-0.883,10.828-2.674L256,428.021  l133.005,69.922c3.426,1.802,7.158,2.672,10.895,2.674c12.841-0.019,23.244-10.433,23.244-23.277c0-1.788-0.203-3.529-0.585-5.203  l-25.19-146.844L504.97,220.418C511.314,214.236,513.598,204.986,510.859,196.558z" fill="#c4d9fd"/><path d="M235.127,24.361l-66.496,134.751l-148.7,21.604c-8.769,1.274-16.055,7.416-18.791,15.842  c-2.739,8.428-0.455,17.678,5.891,23.862l107.601,104.873L89.22,473.405c-1.497,8.732,2.092,17.558,9.26,22.766  c4.055,2.947,8.858,4.446,13.685,4.446c3.704,0,7.422-0.883,10.828-2.674L256,428.021V11.385  C247.139,11.385,239.047,16.414,235.127,24.361z" fill="#a7c7fc"/></g></defs><g fi:class="KUsePattern"><pattern id="pattern_L1_210" width="350" height="350" patternUnits="userSpaceOnUse"><use xlink:href="#L1_210" x="-350" y="-350"/><use xlink:href="#L1_210" x="0" y="-350"/><use xlink:href="#L1_210" x="350" y="-350"/><use xlink:href="#L1_210" x="-350" y="0"/><use xlink:href="#L1_210" x="0" y="0"/><use xlink:href="#L1_210" x="350" y="0"/><use xlink:href="#L1_210" x="-350" y="350"/><use xlink:href="#L1_210" x="0" y="350"/><use xlink:href="#L1_210" x="350" y="350"/></pattern><rect x="0" y="0" width="100%" height="100%" fill="url(#pattern_L1_210)"/></g><g fi:class="KUsePattern"><pattern id="pattern_L1_211" width="350" height="350" patternUnits="userSpaceOnUse"><use xlink:href="#L1_211" x="-350" y="-350"/><use xlink:href="#L1_211" x="0" y="-350"/><use xlink:href="#L1_211" x="350" y="-350"/><use xlink:href="#L1_211" x="-350" y="0"/><use xlink:href="#L1_211" x="0" y="0"/><use xlink:href="#L1_211" x="350" y="0"/><use xlink:href="#L1_211" x="-350" y="350"/><use xlink:href="#L1_211" x="0" y="350"/><use xlink:href="#L1_211" x="350" y="350"/></pattern><rect x="0" y="0" width="100%" height="100%" fill="url(#pattern_L1_211)"/></g><g fi:class="KUsePattern"><pattern id="pattern_L1_212" width="350" height="350" patternUnits="userSpaceOnUse"><use xlink:href="#L1_212" x="-350" y="-350"/><use xlink:href="#L1_212" x="0" y="-350"/><use xlink:href="#L1_212" x="350" y="-350"/><use xlink:href="#L1_212" x="-350" y="0"/><use xlink:href="#L1_212" x="0" y="0"/><use xlink:href="#L1_212" x="350" y="0"/><use xlink:href="#L1_212" x="-350" y="350"/><use xlink:href="#L1_212" x="0" y="350"/><use xlink:href="#L1_212" x="350" y="350"/></pattern><rect x="0" y="0" width="100%" height="100%" fill="url(#pattern_L1_212)"/></g><g fi:class="KUsePattern"><pattern id="pattern_L1_213" width="350" height="350" patternUnits="userSpaceOnUse"><use xlink:href="#L1_213" x="-350" y="-350"/><use xlink:href="#L1_213" x="0" y="-350"/><use xlink:href="#L1_213" x="350" y="-350"/><use xlink:href="#L1_213" x="-350" y="0"/><use xlink:href="#L1_213" x="0" y="0"/><use xlink:href="#L1_213" x="350" y="0"/><use xlink:href="#L1_213" x="-350" y="350"/><use xlink:href="#L1_213" x="0" y="350"/><use xlink:href="#L1_213" x="350" y="350"/></pattern><rect x="0" y="0" width="100%" height="100%" fill="url(#pattern_L1_213)"/></g><g fi:class="KUsePattern"><pattern id="pattern_L1_214" width="350" height="350" patternUnits="userSpaceOnUse"><use xlink:href="#L1_214" x="-350" y="-350"/><use xlink:href="#L1_214" x="0" y="-350"/><use xlink:href="#L1_214" x="350" y="-350"/><use xlink:href="#L1_214" x="-350" y="0"/><use xlink:href="#L1_214" x="0" y="0"/><use xlink:href="#L1_214" x="350" y="0"/><use xlink:href="#L1_214" x="-350" y="350"/><use xlink:href="#L1_214" x="0" y="350"/><use xlink:href="#L1_214" x="350" y="350"/></pattern><rect x="0" y="0" width="100%" height="100%" fill="url(#pattern_L1_214)"/></g><g fi:class="KUsePattern"><pattern id="pattern_L1_215" width="350" height="350" patternUnits="userSpaceOnUse"><use xlink:href="#L1_215" x="-350" y="-350"/><use xlink:href="#L1_215" x="0" y="-350"/><use xlink:href="#L1_215" x="350" y="-350"/><use xlink:href="#L1_215" x="-350" y="0"/><use xlink:href="#L1_215" x="0" y="0"/><use xlink:href="#L1_215" x="350" y="0"/><use xlink:href="#L1_215" x="-350" y="350"/><use xlink:href="#L1_215" x="0" y="350"/><use xlink:href="#L1_215" x="350" y="350"/></pattern><rect x="0" y="0" width="100%" height="100%" fill="url(#pattern_L1_215)"/></g><g fi:class="KUsePattern"><pattern id="pattern_L1_216" width="350" height="350" patternUnits="userSpaceOnUse"><use xlink:href="#L1_216" x="-350" y="-350"/><use xlink:href="#L1_216" x="0" y="-350"/><use xlink:href="#L1_216" x="350" y="-350"/><use xlink:href="#L1_216" x="-350" y="0"/><use xlink:href="#L1_216" x="0" y="0"/><use xlink:href="#L1_216" x="350" y="0"/><use xlink:href="#L1_216" x="-350" y="350"/><use xlink:href="#L1_216" x="0" y="350"/><use xlink:href="#L1_216" x="350" y="350"/></pattern><rect x="0" y="0" width="100%" height="100%" fill="url(#pattern_L1_216)"/></g><g fi:class="KUsePattern"><pattern id="pattern_L1_217" width="350" height="350" patternUnits="userSpaceOnUse"><use xlink:href="#L1_217" x="-350" y="-350"/><use xlink:href="#L1_217" x="0" y="-350"/><use xlink:href="#L1_217" x="350" y="-350"/><use xlink:href="#L1_217" x="-350" y="0"/><use xlink:href="#L1_217" x="0" y="0"/><use xlink:href="#L1_217" x="350" y="0"/><use xlink:href="#L1_217" x="-350" y="350"/><use xlink:href="#L1_217" x="0" y="350"/><use xlink:href="#L1_217" x="350" y="350"/></pattern><rect x="0" y="0" width="100%" height="100%" fill="url(#pattern_L1_217)"/></g><g fi:class="KUsePattern"><pattern id="pattern_L1_218" width="350" height="350" patternUnits="userSpaceOnUse"><use xlink:href="#L1_218" x="-350" y="-350"/><use xlink:href="#L1_218" x="0" y="-350"/><use xlink:href="#L1_218" x="350" y="-350"/><use xlink:href="#L1_218" x="-350" y="0"/><use xlink:href="#L1_218" x="0" y="0"/><use xlink:href="#L1_218" x="350" y="0"/><use xlink:href="#L1_218" x="-350" y="350"/><use xlink:href="#L1_218" x="0" y="350"/><use xlink:href="#L1_218" x="350" y="350"/></pattern><rect x="0" y="0" width="100%" height="100%" fill="url(#pattern_L1_218)"/></g><g fi:class="KUsePattern"><pattern id="pattern_L1_219" width="350" height="350" patternUnits="userSpaceOnUse"><use xlink:href="#L1_219" x="-350" y="-350"/><use xlink:href="#L1_219" x="0" y="-350"/><use xlink:href="#L1_219" x="350" y="-350"/><use xlink:href="#L1_219" x="-350" y="0"/><use xlink:href="#L1_219" x="0" y="0"/><use xlink:href="#L1_219" x="350" y="0"/><use xlink:href="#L1_219" x="-350" y="350"/><use xlink:href="#L1_219" x="0" y="350"/><use xlink:href="#L1_219" x="350" y="350"/></pattern><rect x="0" y="0" width="100%" height="100%" fill="url(#pattern_L1_219)"/></g></svg>